<?xml version="1.0" standalone="no"?>
<!DOCTYPE svg PUBLIC "-//W3C//DTD SVG 20010904//EN"
 "http://www.w3.org/TR/2001/REC-SVG-20010904/DTD/svg10.dtd">
<svg version="1.0" xmlns="http://www.w3.org/2000/svg"
 width="556.000000pt" height="556.000000pt" viewBox="0 0 556.000000 556.000000"
 preserveAspectRatio="xMidYMid meet">
<metadata>
Created by potrace 1.14, written by Peter Selinger 2001-2017
</metadata>
<g transform="translate(0.000000,556.000000) scale(0.100000,-0.100000)"
fill="#000000" stroke="none">
<path d="M2768 5272 c-2 -4 -41 -38 -88 -77 -105 -87 -705 -590 -779 -653 -30
-26 -66 -56 -80 -67 -14 -11 -31 -24 -37 -30 -6 -5 -32 -28 -59 -50 -27 -22
-79 -66 -116 -97 l-67 -58 -771 0 -772 0 47 -67 c103 -149 229 -329 237 -338
4 -5 66 -93 137 -195 71 -102 133 -189 137 -195 24 -28 73 -105 73 -113 0 -6
-13 -23 -30 -39 -16 -15 -30 -31 -30 -36 0 -4 27 -45 60 -90 81 -112 73 -100
215 -297 69 -96 136 -188 149 -205 52 -68 52 -66 1 -188 -25 -62 -50 -121 -55
-132 -6 -11 -27 -63 -49 -115 -43 -104 -42 -114 17 -140 15 -6 43 -32 62 -57
19 -25 40 -50 45 -57 13 -14 527 -645 575 -706 19 -24 49 -60 66 -80 17 -19
68 -82 114 -140 46 -58 87 -107 90 -110 3 -3 32 -39 65 -80 33 -41 65 -80 70
-86 6 -6 28 -34 50 -62 22 -28 42 -51 45 -51 3 -1 18 32 34 72 16 39 37 90 46
112 10 22 33 77 53 123 l34 82 94 -137 c101 -148 250 -368 356 -525 37 -54 69
-98 73 -98 4 0 123 171 265 381 l259 381 28 -69 c16 -37 33 -79 38 -93 55
-134 97 -222 105 -219 5 2 101 117 213 254 112 138 218 268 236 290 38 45 85
103 132 161 18 22 96 118 174 214 78 96 155 192 172 212 16 20 39 48 51 62 12
14 54 65 92 114 40 50 90 101 115 117 25 16 46 29 48 30 3 2 -75 197 -109 272
-10 23 -19 44 -19 48 0 3 -11 27 -24 54 -46 97 -53 80 116 312 84 116 160 220
168 232 8 12 40 57 72 99 86 116 85 114 49 152 -35 36 -37 44 -16 71 15 20
123 172 148 209 6 10 23 33 37 52 14 18 56 77 93 131 38 54 129 184 202 288
l134 190 -770 3 -770 2 -277 232 c-328 276 -322 270 -336 283 -9 9 -91 77
-395 330 -13 11 -29 25 -35 30 -6 6 -36 30 -66 55 -30 25 -66 55 -80 68 -32
30 -57 44 -62 34z"/>
</g>
</svg>
